<svg width="770" height="668" viewBox="0 0 770 668" fill="none" xmlns="http://www.w3.org/2000/svg">
<rect width="770" height="668" fill="none"/>
<path d="M762.73 73.1338V179.342H0V73.1338C0 32.7459 33.3186 0 74.4127 0H688.318C729.412 0 762.73 32.7459 762.73 73.1338Z" fill="#9FB5FF"/>
<path d="M336.18 68.1615C351.745 68.2113 364.317 80.5736 364.266 95.7745C364.215 110.975 351.556 123.26 335.991 123.21C320.425 123.16 307.853 110.798 307.904 95.5971C307.962 80.3962 320.614 68.119 336.18 68.1615Z" fill="#7289DA"/>
<path d="M762.73 183.687V586.98C762.73 627.118 729.412 659.649 688.318 659.649H74.4127C33.3186 659.649 0 627.118 0 586.98V183.687H762.73Z" fill="#9DB3FF"/>
<path d="M209.562 67.7782C225.128 67.8281 237.706 80.1904 237.656 95.3913C237.605 110.592 224.946 122.876 209.38 122.827C193.815 122.777 181.236 110.415 181.286 95.2139C181.308 87.9115 184.302 80.9142 189.6 75.7692C194.905 70.6241 202.092 67.75 209.562 67.7782Z" fill="#7289DA"/>
<path d="M82.9513 67.3808C98.5242 67.4236 111.11 79.7859 111.06 94.9939C111.016 110.202 98.357 122.493 82.7841 122.444C67.2112 122.401 54.625 110.039 54.6758 94.8306C54.6904 87.5282 57.6844 80.531 62.9892 75.3789C68.294 70.2338 75.4737 67.3526 82.9513 67.3808Z" fill="#7289DA"/>
<path d="M525.071 216H237.929C213.714 216 194 235.705 194 260.122V549.702C194 574.119 213.714 593.825 237.929 593.825H480.929L469.571 554.2L497 579.688L522.929 603.677L569 644.373V260.122C569 235.705 549.286 216 525.071 216ZM442.357 495.727C442.357 495.727 434.643 486.517 428.214 478.378C456.286 470.453 467 452.89 467 452.89C458.214 458.673 449.857 462.743 442.357 465.527C431.643 470.025 421.357 473.024 411.286 474.737C390.714 478.592 371.857 477.521 355.786 474.523C343.571 472.167 333.071 468.74 324.286 465.313C319.357 463.385 314 461.029 308.643 458.03C308 457.602 307.357 457.388 306.714 456.96C306.286 456.745 306.071 456.531 305.857 456.317C302 454.175 299.857 452.676 299.857 452.676C299.857 452.676 310.143 469.811 337.357 477.95C330.929 486.089 323 495.727 323 495.727C275.643 494.228 257.643 463.171 257.643 463.171C257.643 394.203 288.5 338.3 288.5 338.3C319.357 315.168 348.714 315.811 348.714 315.811L350.857 318.381C312.286 329.519 294.5 346.439 294.5 346.439C294.5 346.439 299.214 343.869 307.143 340.228C330.071 330.161 348.286 327.377 355.786 326.734C357.071 326.52 358.143 326.306 359.429 326.306C372.5 324.592 387.286 324.164 402.714 325.878C423.071 328.234 444.929 334.231 467.214 346.439C467.214 346.439 450.286 330.375 413.857 319.238L416.857 315.811C416.857 315.811 446.214 315.168 477.071 338.3C477.071 338.3 507.929 394.203 507.929 463.171C507.929 463.171 489.714 494.228 442.357 495.727ZM342.714 395.702C330.5 395.702 320.857 406.412 320.857 419.477C320.857 432.542 330.714 443.252 342.714 443.252C354.929 443.252 364.571 432.542 364.571 419.477C364.786 406.412 354.929 395.702 342.714 395.702ZM420.929 395.702C408.714 395.702 399.071 406.412 399.071 419.477C399.071 432.542 408.929 443.252 420.929 443.252C433.143 443.252 442.786 432.542 442.786 419.477C442.786 406.412 433.143 395.702 420.929 395.702Z" fill="#7289DA"/>
</svg>
